<?xml version="1.0" encoding="utf-8"?>
<!-- Generator: Adobe Illustrator 24.0.1, SVG Export Plug-In . SVG Version: 6.00 Build 0)  -->
<svg version="1.1" xmlns="http://www.w3.org/2000/svg" xmlns:xlink="http://www.w3.org/1999/xlink" x="0px" y="0px"
	 viewBox="0 0 1200 245" style="enable-background:new 0 0 1200 245;" xml:space="preserve">
<style type="text/css">
	.st0{clip-path:url(#SVGID_2_);fill:none;stroke:#59B7A9;stroke-width:35;stroke-miterlimit:10;}
	.st1{display:none;enable-background:new    ;}
	.st2{display:inline;fill:#004880;}
	.st3{font-family:'SanFranciscoDisplay-Medium';}
	.st4{font-size:160px;}
	.st5{letter-spacing:-8;}
	.st6{letter-spacing:-17;}
	.st7{enable-background:new    ;}
	.st8{fill:#004880;}
</style>
<g id="Layer_3">
</g>
<g id="Layer_2_1_">
	<g id="GJ-Logo">
		<g>
			<g>
				<g>
					<defs>
						<path id="SVGID_1_" d="M99.6,245c-1.7,0-3.3,0-5-0.1c-34.8-1.3-68.1-16.3-94-42.1L16.5,187c21.8,21.8,49.9,34.5,79,35.6
							s56.4-9.6,76.9-30.2c29.8-29.8,38.6-76.4,21.4-113.2l20.2-9.5c10.5,22.3,13.4,47.5,8.7,72.8c-4.7,25.1-16.7,47.8-34.5,65.7
							C164.5,232,133.2,245,99.6,245z M97.6,204c-25.1,0-48.8-9.9-66.8-27.9c-19.3-19.3-30.2-44.8-30.7-71.7
							C-0.4,77.3,9.8,52,28.6,33.2c19-19.1,44.9-30.5,73-32.2s55.2,6.5,76.6,23.2l-13.8,17.6c-17.1-13.3-38.9-19.9-61.5-18.5
							C80.3,24.7,59.5,33.8,44.4,49c-14.5,14.5-22.3,34.1-22,55c0.4,21.1,8.9,41.1,24.1,56.3c13.8,13.8,31.9,21.4,51.1,21.4l0,0
							c18.1,0,34.9-6.9,47.4-19.5c9.7-9.7,15.5-22.4,16.9-36.1H93.5v-22.3h90.2l0.7,10.4c1.7,23.9-6.9,47.2-23.5,63.8
							C144.1,194.8,121.7,204,97.6,204C97.7,204,97.6,204,97.6,204z M186.1,65.4c-2.8-4.2-5.9-8.2-9.7-12.4L193,38.1
							c4.4,5,8.3,9.8,11.7,14.9L186.1,65.4z"/>
					</defs>
					<clipPath id="SVGID_2_">
						<use xlink:href="#SVGID_1_"  style="overflow:visible;"/>
					</clipPath>
					<path id="whole_1_" class="st0" d="M8.6,194.9c49,49,124.5,52.9,171.8,5.5c33.1-33.1,42.9-84.6,23.7-125.9l-8.6-15.4
						c-3.2-4.7-6.7-9.2-10.7-13.6L171.2,33C131.5,2,71.8,5.7,36.5,41C2,75.5,2.9,132.4,38.6,168.1c32.1,32.1,83.4,33,114.4,1.9
						c15-15,21.7-35.2,20.3-55.1H93.5"/>
				</g>
			</g>
		</g>
	</g>
	<text transform="matrix(1 0 0 1 304.4167 168.1969)" class="st1"><tspan x="0" y="0" class="st2 st3 st4 st5">Greg </tspan><tspan x="325.5" y="0" class="st2 st3 st4 st6"> </tspan><tspan x="339.8" y="0" class="st2 st3 st4 st5">Jacobs</tspan></text>
	<g id="Greg_Jacobs" class="st7">
		<path class="st8" d="M312.5,121.7v-14.3c0-14.9,3.9-26.7,11.8-35.2c7.9-8.5,18.5-12.8,31.9-12.8c6.2,0,11.9,1,17,2.9
			c5.1,1.9,9.3,4.5,12.6,7.9c3.3,3.3,5.8,7,7.7,11.2c1.9,4.2,2.9,8.6,3.2,13.3h-16.1c-0.8-6.9-3.5-12.1-8.1-15.7
			c-4.6-3.6-10.1-5.4-16.6-5.4c-8,0-14.6,2.8-19.6,8.5c-5.1,5.7-7.6,14.2-7.6,25.6v14.2c0,10.8,2.3,19.3,6.9,25.5
			c4.6,6.2,11.3,9.2,20.2,9.2c7.4,0,13.5-2.1,18.3-6.3c4.7-4.2,7.1-9.5,7.1-15.9v-9.2h-25.5V112h41.2v21.7c0,3.2-0.4,6.4-1.3,9.6
			c-0.8,3.2-2.3,6.5-4.4,9.8c-2.1,3.3-4.6,6.2-7.7,8.8c-3,2.5-7,4.6-11.8,6.2s-10.2,2.4-16.1,2.4c-14.2,0-24.9-4.3-32.2-13
			C316.1,148.6,312.5,136.8,312.5,121.7z"/>
		<path class="st8" d="M408.1,168.2V85.9h15.6v10.5h0.5c1.4-3.1,3.7-5.8,7.1-8.2s7.6-3.6,12.9-3.6c1.9,0,3.7,0.1,5.5,0.4v14.2
			c-1.5-0.3-3.8-0.5-7-0.5c-12.6,0-18.8,6.6-18.8,19.8v49.6H408.1z"/>
		<path class="st8" d="M452.8,130.8v-8.7c0-11.4,3.1-20.5,9.4-27.4c6.2-6.8,14.8-10.3,25.5-10.3S506.9,88,513.2,95
			c6.2,7,9.4,16.3,9.4,27.9v7.8h-54v1.7c0,7.3,1.8,13.2,5.4,17.7c3.6,4.5,8.5,6.7,14.6,6.7c4.5,0,8.2-1,11.2-3.1
			c3-2.1,5.1-5,6.3-8.7h15.5c-1.5,7.2-5,13.1-10.7,17.7c-5.7,4.6-13.2,6.9-22.5,6.9c-11,0-19.6-3.5-26-10.4S452.8,142.8,452.8,130.8
			z M468.6,119.1h38.2v-0.2c0-6.3-1.8-11.5-5.3-15.7c-3.5-4.2-8.1-6.3-13.7-6.3c-5.7,0-10.3,2.1-13.9,6.3c-3.5,4.2-5.3,9.4-5.3,15.7
			V119.1z"/>
		<path class="st8" d="M530.3,129v-6.3c0-12,2.9-21.4,8.8-28.1c5.9-6.7,13.7-10,23.5-10c5.4,0,10.3,1.2,14.6,3.7
			c4.3,2.4,7.4,5.5,9.3,9.3h0.5V85.9h15.4v81.6c0,4.2-0.7,8-2,11.5c-1.3,3.5-3.1,6.5-5.4,8.9s-5,4.5-8,6.2c-3.1,1.7-6.4,2.9-9.8,3.7
			s-7.1,1.2-10.9,1.2c-10.4,0-18.5-2.2-24.3-6.7c-5.7-4.5-9-10.4-9.9-17.7h15.6c0.8,3.4,2.8,6.2,6.1,8.5c3.3,2.3,7.5,3.4,12.5,3.4
			c6.2,0,11.1-1.7,14.8-5.2c3.7-3.5,5.5-8.2,5.5-14.3v-12.7h-0.5c-1.7,3.8-4.6,6.9-8.9,9.3c-4.3,2.5-9.1,3.7-14.6,3.7
			c-9.8,0-17.6-3.4-23.5-10.1S530.3,141.1,530.3,129z M546.1,128.6c0,8.2,1.8,14.5,5.4,19.1c3.6,4.6,8.7,6.8,15.1,6.8
			c6.3,0,11.2-2.3,14.7-6.9c3.5-4.6,5.3-10.9,5.3-19.1v-4.9c0-8-1.8-14.3-5.4-18.9c-3.6-4.7-8.5-7-14.6-7c-6.5,0-11.5,2.3-15.1,6.8
			c-3.6,4.5-5.4,10.9-5.4,19.2V128.6z"/>
		<path class="st8" d="M646.2,141.8H662c0.2,4.3,1.7,7.8,4.6,10.3c2.9,2.6,6.5,3.8,10.8,3.8c5.2,0,9.4-1.5,12.4-4.6
			c3-3,4.5-7.7,4.5-14.1V61.6h16.1v74.7c0,11.2-3,19.7-8.9,25.5s-13.9,8.7-24,8.7c-9.6,0-17.2-2.7-22.9-8
			C649,157,646.2,150.1,646.2,141.8z"/>
		<path class="st8" d="M721,144.5c0-7.4,2.5-13.2,7.5-17.4c5-4.2,12.1-6.4,21.5-6.4h21.1v-8c0-5-1.4-8.8-4.2-11.4
			c-2.8-2.6-6.8-4-11.9-4c-4.9,0-8.7,1.1-11.5,3.4c-2.8,2.3-4.4,5.3-4.7,9.2h-14.8c0.4-7.6,3.3-13.7,8.5-18.4s12.9-7,23-7
			c9.4,0,16.9,2.4,22.7,7.1c5.8,4.7,8.7,11.5,8.7,20.2v56.4h-15.2V158h-0.5c-4.6,7.7-12.4,11.5-23.4,11.5c-8,0-14.4-2.3-19.4-6.8
			C723.5,158.1,721,152.1,721,144.5z M736.8,143.7c0,4.3,1.5,7.6,4.5,9.9c3,2.3,6.7,3.5,11,3.5c5.4,0,9.8-1.5,13.4-4.5
			c3.5-3,5.3-6.9,5.3-11.6v-9.3h-19c-5.1,0-8.9,1.1-11.5,3.3C738.1,137.1,736.8,140,736.8,143.7z"/>
		<path class="st8" d="M797.5,130.5v-7.7c0-11.4,3.1-20.7,9.4-27.7c6.3-7.1,14.8-10.6,25.6-10.6c9.5,0,17.1,2.6,23,7.8
			c5.9,5.2,9,11.4,9.4,18.7h-15.2c-0.8-3.6-2.7-6.7-5.7-9.2c-2.9-2.5-6.5-3.8-10.5-3.8c-6.3,0-11.2,2.2-14.8,6.7
			c-3.5,4.5-5.3,10.7-5.3,18.6v7.3c0,7.8,1.8,14,5.5,18.6c3.7,4.6,8.6,6.9,14.7,6.9c4.7,0,8.5-1.1,11.3-3.3c2.8-2.2,4.6-5.1,5.4-8.5
			h15.2c-1.2,7.9-4.6,14.1-10.3,18.6c-5.6,4.5-13.2,6.8-22.6,6.8c-7.2,0-13.5-1.7-18.8-5.1c-5.3-3.4-9.4-8-12.1-13.9
			S797.5,138.1,797.5,130.5z"/>
		<path class="st8" d="M871.7,130.3v-6.9c0-11.5,3.2-20.9,9.6-28.1c6.4-7.2,15.3-10.9,26.7-10.9c11.3,0,20.2,3.6,26.5,10.8
			c6.3,7.2,9.5,16.6,9.5,28.1v7c0,11.8-3.1,21.3-9.4,28.5c-6.3,7.2-15.1,10.8-26.5,10.8c-11.4,0-20.3-3.6-26.7-10.8
			C874.9,151.6,871.7,142.1,871.7,130.3z M887.5,130c0,8,1.8,14.5,5.3,19.3s8.5,7.2,15.1,7.2c6.6,0,11.6-2.4,15.1-7.2
			c3.5-4.8,5.2-11.2,5.2-19.3v-6.3c0-8.1-1.7-14.5-5.2-19.3s-8.5-7.1-15-7.1c-6.5,0-11.5,2.4-15.1,7.1s-5.3,11.2-5.3,19.3V130z"/>
		<path class="st8" d="M955.8,168.2V55.9h15.8v41.3h0.5c2.1-3.7,5.3-6.7,9.6-9.1c4.3-2.3,9.1-3.5,14.3-3.5c9.8,0,17.6,3.4,23.5,10.1
			c5.9,6.7,8.8,16.2,8.8,28.4v7.8c0,11.9-2.9,21.3-8.8,28.2c-5.9,6.9-13.7,10.4-23.6,10.4c-11.2,0-19.4-4.5-24.4-13.6h-0.5v12.3
			H955.8z M971.4,130c0,8.5,1.9,15,5.6,19.5c3.8,4.5,9,6.8,15.8,6.8c5.9,0,10.6-2.3,14.2-6.9c3.6-4.6,5.4-11,5.4-19.3v-6.3
			c0-8.3-1.8-14.7-5.4-19.3c-3.6-4.6-8.3-6.9-14.2-6.9c-6.7,0-12,2.3-15.7,6.8c-3.8,4.5-5.7,11-5.7,19.4V130z"/>
		<path class="st8" d="M1035.3,145.7h15.2c0.5,3.6,2.3,6.5,5.3,8.6c3,2.1,7,3.2,12,3.2c5.5,0,9.7-1.1,12.6-3.4
			c2.9-2.3,4.3-5.1,4.3-8.6c0-1.4-0.2-2.7-0.6-3.8c-0.4-1.1-1.2-2.1-2.2-2.9s-2-1.5-2.9-2c-0.9-0.5-2.3-1.1-4.3-1.6
			c-2-0.6-3.5-0.9-4.5-1.2c-1-0.2-2.7-0.5-5-1c-0.3-0.1-0.6-0.1-0.7-0.2c-4.4-1.4-8-2.5-11.1-3.3c-3-0.8-5.9-2.1-8.6-3.8
			c-2.7-1.7-4.8-4-6.1-6.6c-1.4-2.7-2.1-5.8-2.1-9.4c0-4.3,0.9-8.1,2.6-11.4s4-6,7-7.9c2.9-2,6.2-3.5,9.9-4.5
			c3.7-1,7.6-1.5,11.8-1.5c9.5,0,16.9,2.3,22.2,6.9c5.3,4.6,7.9,10.6,7.9,17.9h-14.5c-0.3-3.5-1.7-6.5-4.2-9
			c-2.5-2.5-6.5-3.7-11.9-3.7c-4.7,0-8.5,1-11.3,3c-2.9,2-4.3,4.7-4.3,8.3c0,1.6,0.4,3.1,1.2,4.3c0.8,1.2,1.9,2.3,3.2,3
			c1.3,0.8,3,1.6,5.1,2.5c2.1,0.9,4,1.5,5.7,1.8c1.7,0.3,3.5,0.7,5.3,1.1c0.2,0,0.4,0.1,0.5,0.1s0.3,0,0.5,0.1
			c3,0.2,5.7,0.6,8.2,1.2c2.5,0.6,5,1.5,7.4,2.7c2.4,1.2,4.5,2.6,6,4.2c1.6,1.6,2.8,3.6,3.7,6c0.9,2.4,1.4,5.2,1.5,8.3
			c0,8.3-3,14.8-9,19.4c-6,4.7-14.1,7-24.3,7c-9.6,0-17.2-2.1-22.9-6.4C1038.2,158.9,1035.3,153,1035.3,145.7z"/>
	</g>
</g>
</svg>
